<?xml version="1.0" encoding="UTF-8" standalone="no"?>
<!DOCTYPE svg PUBLIC "-//W3C//DTD SVG 1.1//EN"
 "http://www.w3.org/Graphics/SVG/1.1/DTD/svg11.dtd">
<!-- Generated by graphviz version 12.1.1 (20240910.0053)
 -->
<!-- Title: INFRA Pages: 1 -->
<svg width="408pt" height="404pt"
 viewBox="0.00 0.00 408.07 404.00" xmlns="http://www.w3.org/2000/svg" xmlns:xlink="http://www.w3.org/1999/xlink">
<g id="graph0" class="graph" transform="scale(1 1) rotate(0) translate(4 400)">
<title>INFRA</title>
<polygon fill="white" stroke="none" points="-4,4 -4,-400 404.07,-400 404.07,4 -4,4"/>
<!-- SOCKSConnection -->
<g id="node1" class="node">
<title>SOCKSConnection</title>
<path fill="#e6e6e6" stroke="black" stroke-width="2" d="M268.29,-72C268.29,-72 140.12,-72 140.12,-72 134.12,-72 128.12,-66 128.12,-60 128.12,-60 128.12,-12 128.12,-12 128.12,-6 134.12,0 140.12,0 140.12,0 268.29,0 268.29,0 274.29,0 280.29,-6 280.29,-12 280.29,-12 280.29,-60 280.29,-60 280.29,-66 274.29,-72 268.29,-72"/>
<text text-anchor="middle" x="204.21" y="-40.2" font-family="Arial" font-size="14.00">SOCKSConnection</text>
<text text-anchor="middle" x="204.21" y="-23.4" font-family="Arial" font-size="14.00">(Custom::Connection)</text>
</g>
<!-- SOCKSHTTPSConnection -->
<g id="node2" class="node">
<title>SOCKSHTTPSConnection</title>
<path fill="#e6e6e6" stroke="black" stroke-width="2" d="M388.07,-180C388.07,-180 230.34,-180 230.34,-180 224.34,-180 218.34,-174 218.34,-168 218.34,-168 218.34,-120 218.34,-120 218.34,-114 224.34,-108 230.34,-108 230.34,-108 388.07,-108 388.07,-108 394.07,-108 400.07,-114 400.07,-120 400.07,-120 400.07,-168 400.07,-168 400.07,-174 394.07,-180 388.07,-180"/>
<text text-anchor="middle" x="309.21" y="-148.2" font-family="Arial" font-size="14.00">SOCKSHTTPSConnection</text>
<text text-anchor="middle" x="309.21" y="-131.4" font-family="Arial" font-size="14.00">(Custom::Connection)</text>
</g>
<!-- SOCKSHTTPSConnection&#45;&gt;SOCKSConnection -->
<g id="edge1" class="edge">
<title>SOCKSHTTPSConnection&#45;&gt;SOCKSConnection</title>
<path fill="none" stroke="black" d="M274.24,-107.7C265.48,-98.85 255.97,-89.26 246.88,-80.08"/>
<polygon fill="black" stroke="black" points="249.61,-77.86 240.08,-73.22 244.63,-82.79 249.61,-77.86"/>
</g>
<!-- SOCKSHTTPConnectionPool -->
<g id="node3" class="node">
<title>SOCKSHTTPConnectionPool</title>
<path fill="#e6e6e6" stroke="black" stroke-width="2" d="M188.41,-180C188.41,-180 12,-180 12,-180 6,-180 0,-174 0,-168 0,-168 0,-120 0,-120 0,-114 6,-108 12,-108 12,-108 188.41,-108 188.41,-108 194.41,-108 200.41,-114 200.41,-120 200.41,-120 200.41,-168 200.41,-168 200.41,-174 194.41,-180 188.41,-180"/>
<text text-anchor="middle" x="100.21" y="-148.2" font-family="Arial" font-size="14.00">SOCKSHTTPConnectionPool</text>
<text text-anchor="middle" x="100.21" y="-131.4" font-family="Arial" font-size="14.00">(Custom::ConnectionPool)</text>
</g>
<!-- SOCKSHTTPConnectionPool&#45;&gt;SOCKSConnection -->
<g id="edge2" class="edge">
<title>SOCKSHTTPConnectionPool&#45;&gt;SOCKSConnection</title>
<path fill="none" stroke="black" d="M134.84,-107.7C143.43,-98.94 152.74,-89.45 161.67,-80.35"/>
<polygon fill="black" stroke="black" points="164.16,-82.81 168.67,-73.22 159.17,-77.91 164.16,-82.81"/>
</g>
<!-- SOCKSHTTPSConnectionPool -->
<g id="node4" class="node">
<title>SOCKSHTTPSConnectionPool</title>
<path fill="#e6e6e6" stroke="black" stroke-width="2" d="M383.08,-288C383.08,-288 197.33,-288 197.33,-288 191.33,-288 185.33,-282 185.33,-276 185.33,-276 185.33,-228 185.33,-228 185.33,-222 191.33,-216 197.33,-216 197.33,-216 383.08,-216 383.08,-216 389.08,-216 395.08,-222 395.08,-228 395.08,-228 395.08,-276 395.08,-276 395.08,-282 389.08,-288 383.08,-288"/>
<text text-anchor="middle" x="290.21" y="-256.2" font-family="Arial" font-size="14.00">SOCKSHTTPSConnectionPool</text>
<text text-anchor="middle" x="290.21" y="-239.4" font-family="Arial" font-size="14.00">(Custom::ConnectionPool)</text>
</g>
<!-- SOCKSHTTPSConnectionPool&#45;&gt;SOCKSHTTPSConnection -->
<g id="edge3" class="edge">
<title>SOCKSHTTPSConnectionPool&#45;&gt;SOCKSHTTPSConnection</title>
<path fill="none" stroke="black" d="M296.53,-215.7C297.93,-207.93 299.42,-199.57 300.88,-191.43"/>
<polygon fill="black" stroke="black" points="304.32,-192.09 302.64,-181.63 297.43,-190.86 304.32,-192.09"/>
</g>
<!-- SOCKSProxyManager -->
<g id="node5" class="node">
<title>SOCKSProxyManager</title>
<path fill="#e6e6e6" stroke="black" stroke-width="2" d="M278.4,-396C278.4,-396 130.02,-396 130.02,-396 124.02,-396 118.02,-390 118.02,-384 118.02,-384 118.02,-336 118.02,-336 118.02,-330 124.02,-324 130.02,-324 130.02,-324 278.4,-324 278.4,-324 284.4,-324 290.4,-330 290.4,-336 290.4,-336 290.4,-384 290.4,-384 290.4,-390 284.4,-396 278.4,-396"/>
<text text-anchor="middle" x="204.21" y="-364.2" font-family="Arial" font-size="14.00">SOCKSProxyManager</text>
<text text-anchor="middle" x="204.21" y="-347.4" font-family="Arial" font-size="14.00">(Custom::ProxyManager)</text>
</g>
<!-- SOCKSProxyManager&#45;&gt;SOCKSHTTPConnectionPool -->
<g id="edge4" class="edge">
<title>SOCKSProxyManager&#45;&gt;SOCKSHTTPConnectionPool</title>
<path fill="none" stroke="black" d="M187.03,-323.66C169.34,-287.26 141.7,-230.39 122.38,-190.62"/>
<polygon fill="black" stroke="black" points="125.59,-189.22 118.07,-181.75 119.29,-192.28 125.59,-189.22"/>
</g>
<!-- SOCKSProxyManager&#45;&gt;SOCKSHTTPSConnectionPool -->
<g id="edge5" class="edge">
<title>SOCKSProxyManager&#45;&gt;SOCKSHTTPSConnectionPool</title>
<path fill="none" stroke="black" d="M232.84,-323.7C239.81,-315.12 247.34,-305.84 254.58,-296.91"/>
<polygon fill="black" stroke="black" points="257.16,-299.29 260.74,-289.32 251.72,-294.88 257.16,-299.29"/>
</g>
</g>
</svg>
